<svg width="30" height="30" viewBox="0 0 30 30" fill="none" xmlns="http://www.w3.org/2000/svg">
<path fill-rule="evenodd" clip-rule="evenodd" d="M14.4253 20.5L19.8898 24.1813L19.8905 20.5H23C23.8284 20.5 24.5 19.8284 24.5 19V7C24.5 6.17157 23.8284 5.5 23 5.5H7C6.17157 5.5 5.5 6.17157 5.5 7V19C5.5 19.8284 6.17157 20.5 7 20.5H14.4253ZM4 7C4 5.34315 5.34315 4 7 4H23C24.6569 4 26 5.34315 26 7V19C26 20.6569 24.6569 22 23 22H21.3902L21.3896 25.121C21.3895 25.9218 20.495 26.3976 19.8309 25.9502L13.9672 22H7C5.34315 22 4 20.6569 4 19V7Z" fill="white"/>
<rect x="9" y="10" width="12" height="1.5" rx="0.75" fill="white"/>
<rect x="9" y="14" width="12" height="1.5" rx="0.75" fill="white"/>
</svg>
