<svg width="30" height="30" viewBox="0 0 30 30" fill="none" xmlns="http://www.w3.org/2000/svg">
<path d="M15 3C14.0051 3 13.2 3.80507 13.2 4.79998C13.2 4.87733 13.2176 4.95115 13.2281 5.02498C10.1168 5.81951 7.8 8.64604 7.8 11.9999V20.0998C7.8 20.6096 7.40977 20.9998 6.9 20.9998V20.9998C6.40295 20.9998 6 21.4028 6 21.8998V21.8998C6 22.3969 6.40294 22.7998 6.89999 22.7998H12.4688C12.3668 23.0846 12.3 23.3834 12.3 23.6998C12.3 25.1799 13.5199 26.3998 15 26.3998C16.4801 26.3998 17.7 25.1799 17.7 23.6998C17.7 23.3834 17.6332 23.0846 17.5313 22.7998H23.1C23.5971 22.7998 24 22.3969 24 21.8998V21.8998C24 21.4028 23.5971 20.9998 23.1 20.9998V20.9998C22.5902 20.9998 22.2 20.6096 22.2 20.0998V12.253C22.2 8.87104 19.9395 5.85466 16.7719 5.02498C16.7824 4.95115 16.8 4.87733 16.8 4.79998C16.8 3.80507 15.9949 3 15 3ZM14.6063 6.59997C14.7363 6.58942 14.8664 6.59997 15 6.59997C15.0563 6.59997 15.1125 6.59997 15.1688 6.59997C18.1078 6.68786 20.4 9.26479 20.4 12.253V20.0998C20.4 20.4162 20.4668 20.7151 20.5688 20.9998H9.43125C9.5332 20.7151 9.6 20.4162 9.6 20.0998V11.9999C9.6 9.14174 11.8008 6.80387 14.6063 6.59997ZM15 22.7998C15.5063 22.7998 15.9 23.1936 15.9 23.6998C15.9 24.2061 15.5063 24.5998 15 24.5998C14.4937 24.5998 14.1 24.2061 14.1 23.6998C14.1 23.1936 14.4937 22.7998 15 22.7998Z" fill="white"/>
</svg>
